<svg width="177" height="187" viewBox="0 0 177 187" fill="#C9F31D" xmlns="http://www.w3.org/2000/svg">
<path opacity="0.32" d="M167.858 75.7135H128.833L156.433 46.5669C159.949 42.8535 159.949 36.834 156.433 33.1076L145.502 21.5636C141.985 17.8502 136.285 17.8502 132.757 21.5636L105.169 50.7233V9.51142C105.169 4.2606 101.134 0 96.1622 0H80.715C75.7428 0 71.7083 4.2606 71.7083 9.51142V50.7233L44.1082 21.5896C40.5919 17.8763 34.8918 17.8763 31.3631 21.5896L20.4317 33.1336C16.9154 36.847 16.9154 42.8666 20.4317 46.5929L48.0317 75.7396H9.00672C4.03452 75.7396 0 80.0002 0 85.251V101.564C0 106.815 4.03452 111.075 9.00672 111.075H48.0317L20.4317 140.222C16.9154 143.935 16.9154 149.955 20.4317 153.681L31.3631 165.225C34.8794 168.939 40.5796 168.939 44.1082 165.225L71.7083 136.079V177.29C71.7083 182.541 75.7428 186.802 80.715 186.802H96.1622C101.134 186.802 105.169 182.541 105.169 177.29V136.079L132.769 165.225C136.285 168.939 141.985 168.939 145.514 165.225L156.445 153.681C159.962 149.968 159.962 143.948 156.445 140.222L128.845 111.075H167.87C172.843 111.075 176.877 106.815 176.877 101.564V85.238C176.877 79.9741 172.843 75.7135 167.858 75.7135Z" fill="#242424"/>
</svg>
