<svg xmlns="http://www.w3.org/2000/svg" width="50px" height="50px" viewBox="0 0 366.74 367.06"><g id="Layer_2" data-name="Layer 2"><g id="Layer_1-2" data-name="Layer 1"><path d="M346.86,165.7,184.18,183.27,311.36,79.81a18,18,0,0,0,1.32-26.68h0A18,18,0,0,0,286,54.71L183.89,182.92h0l17.47-163A17.93,17.93,0,0,0,183.53,0h0A17.93,17.93,0,0,0,165.7,19.88L183.47,183h0L81,54.71a17.94,17.94,0,0,0-26.66-1.58h0A18,18,0,0,0,55.7,79.81L183.13,183.19h0L19.88,165.7A17.93,17.93,0,0,0,0,183.53H0a17.93,17.93,0,0,0,19.88,17.83l163.32-17.6h0L55.7,287.25A17.94,17.94,0,1,0,81,312.35L183.5,184.1h0L165.7,347.18a17.93,17.93,0,0,0,17.83,19.88h0a17.93,17.93,0,0,0,17.83-19.88L183.91,184.11h0L286,312.35a18,18,0,0,0,26.67,1.58h0a18,18,0,0,0-1.32-26.68L184.25,183.81l162.61,17.55a17.93,17.93,0,0,0,19.88-17.83h0A17.93,17.93,0,0,0,346.86,165.7Z" style="fill:#C9F31D"></path></g></g></svg>